<?xml version="1.0" standalone="no"?><!DOCTYPE svg PUBLIC "-//W3C//DTD SVG 1.1//EN" "http://www.w3.org/Graphics/SVG/1.1/DTD/svg11.dtd"><svg t="1704697288067" class="icon" viewBox="0 0 1724 1024" version="1.1" xmlns="http://www.w3.org/2000/svg" p-id="5256" xmlns:xlink="http://www.w3.org/1999/xlink" width="336.71875" height="200"><path d="M443.014737 0l914.593684 914.593684-76.207158 76.261053-914.593684-914.593684L442.906947 0z m-35.786105 192.835368l220.860631 220.968421a247.861895 247.861895 0 0 0 315.769263 315.769264l145.946948 145.893052c-74.105263 16.114526-149.935158 24.144842-227.597474 24.144842-317.493895 0-604.968421-134.736842-862.315789-404.210526 128.269474-134.305684 264.084211-235.196632 407.336421-302.565053z m454.979368-101.645473c317.44 0 604.914526 134.736842 862.315789 404.210526-128.323368 134.359579-264.084211 235.196632-407.390315 302.565053l-220.860632-220.914527a247.861895 247.861895 0 0 0-315.769263-315.769263l-145.946947-145.893052c74.051368-16.114526 149.935158-24.198737 227.651368-24.198737z m-190.248421 366.376421l228.082526 228.136421a193.967158 193.967158 0 0 1-228.136421-228.136421z m190.248421-156.133053c25.546105 0 49.906526 4.958316 72.218947 13.958737a44.732632 44.732632 0 1 0 69.632 47.750737 193.212632 193.212632 0 0 1 48.397474 170.145684l-228.190316-228.136421c12.288-2.425263 24.953263-3.718737 37.941895-3.718737z" fill="#1296db" p-id="5257"></path></svg>