<?xml version="1.0" standalone="no"?><!DOCTYPE svg PUBLIC "-//W3C//DTD SVG 1.1//EN" "http://www.w3.org/Graphics/SVG/1.1/DTD/svg11.dtd"><svg t="1704697333017" class="icon" viewBox="0 0 2048 1024" version="1.1" xmlns="http://www.w3.org/2000/svg" p-id="5958" xmlns:xlink="http://www.w3.org/1999/xlink" width="400" height="200"><path d="M1023.842462 39.384615c371.160615 0 707.347692 157.538462 1008.246153 472.615385-300.898462 315.076923-637.085538 472.615385-1008.246153 472.615385-371.239385 0-707.347692-157.538462-1008.246154-472.615385 300.898462-315.076923 637.006769-472.615385 1008.246154-472.615385z m0 182.744616a289.870769 289.870769 0 1 0 0 579.741538 289.870769 289.870769 0 0 0 0-579.741538z m0 63.015384c29.932308 0 58.446769 5.828923 84.519384 16.384a52.302769 52.302769 0 1 0 81.289846 55.926154 226.855385 226.855385 0 1 1-165.888-72.231384z" fill="#1296db" p-id="5959"></path></svg>